<svg aria-hidden="true" style="position: absolute; width: 0; height: 0; overflow: hidden;" version="1.1" xmlns="http://www.w3.org/2000/svg" xmlns:xlink="http://www.w3.org/1999/xlink">
<defs>
<symbol id="icon-facebook" viewBox="0 0 17 32">
<path d="M14.516 2.428c0 1.633 0 4.546 0 4.546s-3.354-0.331-4.193 0.949c-0.452 0.706-0.188 2.759-0.221 4.237 1.457 0 2.979 0 4.436 0-0.375 1.721-0.64 2.891-0.916 4.392-1.269 0-3.553 0-3.553 0v14.124c0 0-4.182 0-6.157 0 0-4.359 0-9.434 0-14.069-0.96 0-1.666 0-2.615 0 0-1.633 0-2.814 0-4.447 0.927 0 1.655 0 2.582 0 0.143-3.255 0.188-6.477 1.799-8.11 1.821-1.843 3.553-1.622 8.839-1.622z"></path>
</symbol>
<symbol id="icon-instagram" viewBox="0 0 32 32">
<path d="M27.086 30.629h-21.943c-2.023 0-3.657-1.634-3.657-3.657v-21.943c0-2.023 1.634-3.657 3.657-3.657h21.943c2.023 0 3.657 1.634 3.657 3.657v21.943c0 2.023-1.634 3.657-3.657 3.657zM16.114 10.331c-2.286 0-4.24 1.349-5.143 3.291v0c-0.011 0.023-0.023 0.046-0.023 0.057-0.057 0.126-0.103 0.251-0.149 0.377-0.023 0.057-0.046 0.114-0.069 0.171-0.046 0.126-0.080 0.263-0.114 0.389-0.011 0.057-0.034 0.126-0.046 0.183-0.023 0.137-0.046 0.274-0.069 0.423 0 0.057-0.023 0.114-0.023 0.171-0.023 0.194-0.034 0.4-0.034 0.606 0 3.131 2.537 5.669 5.669 5.669s5.669-2.537 5.669-5.669c0-0.206-0.011-0.411-0.034-0.606 0-0.057-0.023-0.114-0.023-0.171-0.023-0.149-0.046-0.286-0.069-0.423-0.023-0.057-0.034-0.126-0.046-0.183-0.034-0.126-0.069-0.263-0.114-0.389-0.023-0.057-0.046-0.114-0.069-0.171-0.046-0.126-0.091-0.251-0.149-0.377 0-0.011-0.011-0.034-0.023-0.057v0c-0.903-1.943-2.857-3.291-5.143-3.291zM27.451 6.126c0-0.811-0.651-1.463-1.463-1.463h-2.926c-0.811 0-1.463 0.651-1.463 1.463v2.926c0 0.811 0.651 1.463 1.463 1.463h2.926c0.811 0 1.463-0.651 1.463-1.463v-2.926zM27.451 13.623h-2.697c0.206 0.754 0.32 1.554 0.32 2.377 0 4.949-4.011 8.96-8.96 8.96s-8.96-4.011-8.96-8.96c0-0.823 0.114-1.623 0.32-2.377h-2.697v12.251c0 0.811 0.651 1.463 1.463 1.463h19.749c0.811 0 1.463-0.651 1.463-1.463v-12.251z"></path>
</symbol>
<symbol id="icon-pinterest" viewBox="0 0 26 32">
<path d="M11.2 19.697c-0.232 0.927-0.463 1.887-0.706 2.825-0.232 0.938-0.441 1.876-0.783 2.726-0.574 1.423-1.302 2.781-2.262 3.895-0.629 0.728-0.497 0.441-0.684 0.397-0.154-0.033-0.166-0.177-0.188-0.375-0.154-1.126-0.055-2.428 0-3.686 0.066-1.446 0.375-2.637 0.651-3.84 0.541-2.273 1.048-4.502 1.589-6.797 0.033-0.154 0.132-0.408 0.099-0.486-0.243-0.64-0.408-1.214-0.474-1.876-0.077-0.772-0.022-1.49 0.154-2.152 0.298-1.17 1.004-2.196 2.086-2.582 0.695-0.232 1.457-0.121 1.92 0.154 0.474 0.276 0.806 0.728 0.949 1.368 0.166 0.684 0.044 1.49-0.088 2.086-0.287 1.346-0.673 2.361-1.026 3.652-0.177 0.651-0.375 1.313-0.21 1.997 0.143 0.64 0.474 1.081 0.938 1.412 0.463 0.342 1.015 0.53 1.788 0.508 1.357-0.055 2.295-0.916 2.924-1.732 1.004-1.313 1.622-3.079 1.854-5.175 0.066-0.673 0.121-1.457 0.077-2.218-0.099-1.423-0.541-2.56-1.247-3.443-0.673-0.839-1.622-1.512-2.77-1.887s-2.737-0.497-4.138-0.254c-2.56 0.43-4.359 1.887-5.418 3.895-0.563 1.048-0.927 2.262-0.927 3.763 0 1.159 0.287 2.052 0.75 2.759 0.143 0.221 0.353 0.408 0.497 0.662 0.21 0.353-0.022 0.894-0.132 1.28-0.121 0.474-0.132 1.114-0.673 1.126-0.232 0.011-0.519-0.154-0.706-0.265-1.446-0.794-2.317-2.24-2.67-4.127-0.221-1.137-0.221-2.461 0-3.564 0.21-1.070 0.596-2.052 1.026-2.847 0.905-1.666 2.218-2.99 3.818-3.939 1.236-0.728 2.626-1.236 4.314-1.479 0.563-0.088 1.137-0.121 1.766-0.143 1.843-0.088 3.52 0.32 4.778 0.883 1.335 0.596 2.394 1.39 3.288 2.372 0.927 1.015 1.6 2.185 2.030 3.652 0.221 0.761 0.43 1.578 0.43 2.527 0 0.938-0.199 1.777-0.331 2.615-0.53 3.112-2.008 5.672-4.237 7.117-0.541 0.353-1.192 0.684-1.942 0.894-0.728 0.221-1.567 0.375-2.472 0.32-0.872-0.066-1.589-0.298-2.185-0.64s-1.103-0.75-1.457-1.379z"></path>
</symbol>
<symbol id="icon-twitter" viewBox="0 0 38 32">
<path d="M25.001 1.953c2.755-0.054 4.214 0.959 5.605 2.229 1.189-0.108 2.728-0.77 3.633-1.229 0.297-0.162 0.594-0.324 0.891-0.486-0.527 1.405-1.229 2.499-2.31 3.336-0.23 0.189-0.473 0.432-0.77 0.554 0 0 0 0.013 0 0.013 1.54-0.013 2.809-0.702 4.011-1.081 0 0 0 0 0 0.013-0.635 0.999-1.486 2.026-2.404 2.755-0.365 0.297-0.743 0.594-1.108 0.878 0.014 1.634-0.027 3.188-0.324 4.565-1.783 7.955-6.47 13.358-13.898 15.681-2.674 0.824-6.983 1.175-10.035 0.419-1.526-0.378-2.89-0.81-4.173-1.364-0.716-0.311-1.378-0.662-2.012-1.040-0.203-0.122-0.419-0.257-0.621-0.378 0.689 0.014 1.499 0.203 2.269 0.081 0.689-0.108 1.378-0.081 2.026-0.216 1.607-0.351 3.025-0.824 4.255-1.54 0.594-0.351 1.499-0.756 1.918-1.256-0.797 0.014-1.513-0.176-2.107-0.378-2.296-0.81-3.633-2.31-4.498-4.538 0.689 0.068 2.701 0.257 3.161-0.149-0.878-0.041-1.715-0.554-2.31-0.932-1.85-1.148-3.363-3.079-3.35-6.064 0.243 0.108 0.486 0.23 0.729 0.338 0.459 0.203 0.932 0.311 1.486 0.419 0.243 0.054 0.702 0.189 0.972 0.081-0.013 0-0.027 0-0.041 0-0.351-0.405-0.932-0.689-1.297-1.135-1.175-1.472-2.296-3.741-1.594-6.429 0.189-0.689 0.473-1.297 0.77-1.85 0.014 0 0.027 0.014 0.027 0.014 0.149 0.297 0.446 0.5 0.648 0.743 0.608 0.756 1.351 1.432 2.107 2.026 2.593 2.026 4.93 3.269 8.671 4.187 0.945 0.23 2.053 0.419 3.188 0.419-0.324-0.932-0.216-2.431 0.027-3.336 0.635-2.256 2.012-3.89 4.025-4.754 0.473-0.216 1.013-0.365 1.567-0.486 0.297-0.041 0.581-0.068 0.864-0.108z"></path>
</symbol>
</defs>
</svg>
