<svg aria-hidden="true" style="position: absolute; width: 0; height: 0; overflow: hidden;" version="1.1" xmlns="http://www.w3.org/2000/svg" xmlns:xlink="http://www.w3.org/1999/xlink">
<defs>
<symbol id="icon-SHOPPING-CART" viewBox="0 0 38 32">
<path d="M35.962 8.627v0l-4.762 10.56c-0.23 0.518-0.73 0.902-1.344 0.941v0l-13.67 0.902 0.787 2.266h14.899c1.747 0 3.168 1.421 3.168 3.168s-1.421 3.168-3.168 3.168c-1.747 0-3.168-1.421-3.168-3.168h-14.784c0 1.747-1.421 3.168-3.168 3.168s-3.168-1.421-3.168-3.168c0-1.747 1.421-3.168 3.168-3.168h2.861l-6.106-17.434h-3.629c-0.864 0-1.574-0.691-1.574-1.574s0.71-1.594 1.574-1.594h4.762c0.691 0 1.267 0.461 1.498 1.075v0l0.922 2.63h23.443c0.883 0 1.594 0.71 1.594 1.574 0 0.25-0.058 0.461-0.134 0.653zM12.173 9.568l2.918 8.371 13.613-0.922 3.36-7.45h-19.891z"></path>
</symbol>
<symbol id="icon-MAGNIFYING-GLASS" viewBox="0 0 32 32">
<path d="M29.312 25.568c0.48 0.48 0.768 1.136 0.768 1.872 0 1.456-1.184 2.64-2.64 2.64-0.736 0-1.392-0.304-1.872-0.768v0l-7.728-7.744c-1.568 0.928-3.408 1.472-5.36 1.472-5.84 0-10.56-4.736-10.56-10.56 0-5.84 4.72-10.56 10.56-10.56s10.56 4.72 10.56 10.56c0 1.952-0.544 3.776-1.472 5.36l7.744 7.728zM12.48 4.56c-4.368 0-7.92 3.552-7.92 7.92s3.552 7.92 7.92 7.92c4.368 0 7.92-3.552 7.92-7.92s-3.552-7.92-7.92-7.92z"></path>
</symbol>
</defs>
</svg>
