<svg aria-hidden="true" style="position:absolute;width:0;height:0" xmlns="http://www.w3.org/2000/svg" overflow="hidden"><defs><symbol id="icon-SHOPPING-CART" viewBox="0 0 38 32"><path d="M35.962 8.627L31.2 19.187a1.58 1.58 0 01-1.344.941l-13.67.902.787 2.266h14.899c1.747 0 3.168 1.421 3.168 3.168s-1.421 3.168-3.168 3.168a3.171 3.171 0 01-3.168-3.168H13.92c0 1.747-1.421 3.168-3.168 3.168s-3.168-1.421-3.168-3.168a3.171 3.171 0 013.168-3.168h2.861L7.507 5.862H3.878c-.864 0-1.574-.691-1.574-1.574s.71-1.594 1.574-1.594H8.64c.691 0 1.267.461 1.498 1.075l.922 2.63h23.443a1.586 1.586 0 011.46 2.227zm-23.789.941l2.918 8.371 13.613-.922 3.36-7.45H12.173z"/></symbol><symbol id="icon-MAGNIFYING-GLASS" viewBox="0 0 32 32"><path d="M29.312 25.568c.48.48.768 1.136.768 1.872a2.643 2.643 0 01-2.64 2.64 2.69 2.69 0 01-1.872-.768l-7.728-7.744a10.518 10.518 0 01-5.36 1.472c-5.84 0-10.56-4.736-10.56-10.56 0-5.84 4.72-10.56 10.56-10.56s10.56 4.72 10.56 10.56c0 1.952-.544 3.776-1.472 5.36l7.744 7.728zM12.48 4.56c-4.368 0-7.92 3.552-7.92 7.92s3.552 7.92 7.92 7.92 7.92-3.552 7.92-7.92-3.552-7.92-7.92-7.92z"/></symbol></defs></svg>