<svg aria-hidden="true" style="position:absolute;width:0;height:0" xmlns="http://www.w3.org/2000/svg" overflow="hidden"><defs><symbol id="icon-facebook" viewBox="0 0 17 32"><path d="M14.516 2.428v4.546s-3.354-.331-4.193.949c-.452.706-.188 2.759-.221 4.237h4.436c-.375 1.721-.64 2.891-.916 4.392h-3.553v14.124H3.912V16.607H1.297V12.16h2.582c.143-3.255.188-6.477 1.799-8.11 1.821-1.843 3.553-1.622 8.839-1.622z"/></symbol><symbol id="icon-instagram" viewBox="0 0 32 32"><path d="M27.086 30.629H5.143a3.653 3.653 0 01-3.657-3.657V5.029a3.653 3.653 0 013.657-3.657h21.943a3.653 3.653 0 013.657 3.657v21.943a3.653 3.653 0 01-3.657 3.657zM16.114 10.331a5.664 5.664 0 00-5.143 3.291c-.011.023-.023.046-.023.057a5.356 5.356 0 00-.149.377l-.069.171c-.046.126-.08.263-.114.389-.011.057-.034.126-.046.183-.023.137-.046.274-.069.423 0 .057-.023.114-.023.171a5.668 5.668 0 005.635 6.275 5.668 5.668 0 005.635-6.275c0-.057-.023-.114-.023-.171-.023-.149-.046-.286-.069-.423-.023-.057-.034-.126-.046-.183-.034-.126-.069-.263-.114-.389l-.069-.171c-.046-.126-.091-.251-.149-.377a.184.184 0 00-.023-.057 5.663 5.663 0 00-5.143-3.291zm11.337-4.205c0-.811-.651-1.463-1.463-1.463h-2.926c-.811 0-1.463.651-1.463 1.463v2.926c0 .811.651 1.463 1.463 1.463h2.926c.811 0 1.463-.651 1.463-1.463V6.126zm0 7.497h-2.697a8.96 8.96 0 01-8.64 11.337 8.96 8.96 0 01-8.64-11.337H4.777v12.251c0 .811.651 1.463 1.463 1.463h19.749c.811 0 1.463-.651 1.463-1.463V13.623z"/></symbol><symbol id="icon-pinterest" viewBox="0 0 26 32"><path d="M11.2 19.697c-.232.927-.463 1.887-.706 2.825-.232.938-.441 1.876-.783 2.726-.574 1.423-1.302 2.781-2.262 3.895-.629.728-.497.441-.684.397-.154-.033-.166-.177-.188-.375-.154-1.126-.055-2.428 0-3.686.066-1.446.375-2.637.651-3.84.541-2.273 1.048-4.502 1.589-6.797.033-.154.132-.408.099-.486-.243-.64-.408-1.214-.474-1.876a6.006 6.006 0 01.154-2.152c.298-1.17 1.004-2.196 2.086-2.582.695-.232 1.457-.121 1.92.154.474.276.806.728.949 1.368.166.684.044 1.49-.088 2.086-.287 1.346-.673 2.361-1.026 3.652-.177.651-.375 1.313-.21 1.997.143.64.474 1.081.938 1.412.463.342 1.015.53 1.788.508 1.357-.055 2.295-.916 2.924-1.732 1.004-1.313 1.622-3.079 1.854-5.175.066-.673.121-1.457.077-2.218-.099-1.423-.541-2.56-1.247-3.443-.673-.839-1.622-1.512-2.77-1.887s-2.737-.497-4.138-.254c-2.56.43-4.359 1.887-5.418 3.895-.563 1.048-.927 2.262-.927 3.763 0 1.159.287 2.052.75 2.759.143.221.353.408.497.662.21.353-.022.894-.132 1.28-.121.474-.132 1.114-.673 1.126-.232.011-.519-.154-.706-.265-1.446-.794-2.317-2.24-2.67-4.127a9.662 9.662 0 010-3.564c.21-1.07.596-2.052 1.026-2.847a10.237 10.237 0 013.818-3.939c1.236-.728 2.626-1.236 4.314-1.479a14.719 14.719 0 011.766-.143c1.843-.088 3.52.32 4.778.883a9.696 9.696 0 013.288 2.372c.927 1.015 1.6 2.185 2.03 3.652.221.761.43 1.578.43 2.527 0 .938-.199 1.777-.331 2.615-.53 3.112-2.008 5.672-4.237 7.117a7.038 7.038 0 01-1.942.894c-.728.221-1.567.375-2.472.32-.872-.066-1.589-.298-2.185-.64s-1.103-.75-1.457-1.379z"/></symbol><symbol id="icon-twitter" viewBox="0 0 38 32"><path d="M25.001 1.953c2.755-.054 4.214.959 5.605 2.229 1.189-.108 2.728-.77 3.633-1.229l.891-.486c-.527 1.405-1.229 2.499-2.31 3.336-.23.189-.473.432-.77.554v.013c1.54-.013 2.809-.702 4.011-1.081v.013c-.635.999-1.486 2.026-2.404 2.755-.365.297-.743.594-1.108.878.014 1.634-.027 3.188-.324 4.565-1.783 7.955-6.47 13.358-13.898 15.681-2.674.824-6.983 1.175-10.035.419-1.526-.378-2.89-.81-4.173-1.364a17.612 17.612 0 01-2.012-1.04c-.203-.122-.419-.257-.621-.378.689.014 1.499.203 2.269.081.689-.108 1.378-.081 2.026-.216 1.607-.351 3.025-.824 4.255-1.54.594-.351 1.499-.756 1.918-1.256-.797.014-1.513-.176-2.107-.378-2.296-.81-3.633-2.31-4.498-4.538.689.068 2.701.257 3.161-.149-.878-.041-1.715-.554-2.31-.932-1.85-1.148-3.363-3.079-3.35-6.064.243.108.486.23.729.338.459.203.932.311 1.486.419.243.054.702.189.972.081h-.041c-.351-.405-.932-.689-1.297-1.135C3.524 10.057 2.403 7.788 3.105 5.1c.189-.689.473-1.297.77-1.85.014 0 .027.014.027.014.149.297.446.5.648.743.608.756 1.351 1.432 2.107 2.026 2.593 2.026 4.93 3.269 8.671 4.187.945.23 2.053.419 3.188.419-.324-.932-.216-2.431.027-3.336.635-2.256 2.012-3.89 4.025-4.754.473-.216 1.013-.365 1.567-.486.297-.041.581-.068.864-.108z"/></symbol></defs></svg>